<mxfile host="65bd71144e">
    <diagram id="xh7mAjY2JFF4dp40T9NW" name="第 1 页">
        <mxGraphModel dx="1266" dy="891" grid="1" gridSize="10" guides="1" tooltips="1" connect="1" arrows="1" fold="1" page="1" pageScale="1" pageWidth="827" pageHeight="1169" background="none" math="0" shadow="0">
            <root>
                <mxCell id="0"/>
                <mxCell id="1" parent="0"/>
                <mxCell id="31dK3zNp4_JqZOqkC3Q5-10" style="edgeStyle=orthogonalEdgeStyle;rounded=0;orthogonalLoop=1;jettySize=auto;html=1;entryX=0.5;entryY=1;entryDx=0;entryDy=0;" parent="1" source="31dK3zNp4_JqZOqkC3Q5-1" target="31dK3zNp4_JqZOqkC3Q5-6" edge="1">
                    <mxGeometry relative="1" as="geometry"/>
                </mxCell>
                <mxCell id="31dK3zNp4_JqZOqkC3Q5-11" style="edgeStyle=orthogonalEdgeStyle;rounded=0;orthogonalLoop=1;jettySize=auto;html=1;" parent="1" source="31dK3zNp4_JqZOqkC3Q5-1" target="31dK3zNp4_JqZOqkC3Q5-7" edge="1">
                    <mxGeometry relative="1" as="geometry"/>
                </mxCell>
                <mxCell id="31dK3zNp4_JqZOqkC3Q5-1" value="RunnableFuture&lt;br&gt;&lt;div style=&quot;text-align: left;&quot;&gt;&lt;span style=&quot;background-color: initial;&quot;&gt;method:&lt;/span&gt;&lt;/div&gt;&lt;div style=&quot;text-align: left;&quot;&gt;&lt;span style=&quot;background-color: initial;&quot;&gt;void run()&lt;/span&gt;&lt;/div&gt;" style="rounded=0;whiteSpace=wrap;html=1;fillColor=#E6FFCC;" parent="1" vertex="1">
                    <mxGeometry x="264" y="230" width="136" height="60" as="geometry"/>
                </mxCell>
                <mxCell id="31dK3zNp4_JqZOqkC3Q5-12" value="" style="edgeStyle=orthogonalEdgeStyle;rounded=0;orthogonalLoop=1;jettySize=auto;html=1;" parent="1" source="31dK3zNp4_JqZOqkC3Q5-2" target="31dK3zNp4_JqZOqkC3Q5-1" edge="1">
                    <mxGeometry relative="1" as="geometry"/>
                </mxCell>
                <mxCell id="31dK3zNp4_JqZOqkC3Q5-2" value="FutureTask" style="rounded=0;whiteSpace=wrap;html=1;fillColor=#CCFFFF;" parent="1" vertex="1">
                    <mxGeometry x="269" y="330" width="126" height="60" as="geometry"/>
                </mxCell>
                <mxCell id="31dK3zNp4_JqZOqkC3Q5-6" value="Runnable&lt;br&gt;method：&lt;br&gt;void run" style="rounded=0;whiteSpace=wrap;html=1;fillColor=#E6FFCC;" parent="1" vertex="1">
                    <mxGeometry x="200" y="120" width="123" height="60" as="geometry"/>
                </mxCell>
                <mxCell id="31dK3zNp4_JqZOqkC3Q5-7" value="Future&lt;br&gt;method：&lt;br&gt;V get()&lt;br&gt;V get(long timeout,TimeUnit unit)" style="rounded=0;whiteSpace=wrap;html=1;fillColor=#E6FFCC;" parent="1" vertex="1">
                    <mxGeometry x="360" y="100" width="130" height="80" as="geometry"/>
                </mxCell>
                <mxCell id="31dK3zNp4_JqZOqkC3Q5-16" value="Callable&lt;br&gt;&lt;div style=&quot;text-align: left;&quot;&gt;&lt;span style=&quot;background-color: initial;&quot;&gt;method:&lt;/span&gt;&lt;/div&gt;&lt;div style=&quot;text-align: left;&quot;&gt;&lt;span style=&quot;background-color: initial;&quot;&gt;V call()&lt;/span&gt;&lt;/div&gt;" style="rounded=0;whiteSpace=wrap;html=1;fillColor=#E6FFCC;" parent="1" vertex="1">
                    <mxGeometry x="560" y="180" width="123" height="60" as="geometry"/>
                </mxCell>
                <mxCell id="31dK3zNp4_JqZOqkC3Q5-23" style="edgeStyle=orthogonalEdgeStyle;rounded=0;orthogonalLoop=1;jettySize=auto;html=1;exitX=0.5;exitY=1;exitDx=0;exitDy=0;entryX=0.992;entryY=0.623;entryDx=0;entryDy=0;entryPerimeter=0;" parent="1" source="31dK3zNp4_JqZOqkC3Q5-20" target="31dK3zNp4_JqZOqkC3Q5-16" edge="1">
                    <mxGeometry relative="1" as="geometry"/>
                </mxCell>
                <mxCell id="31dK3zNp4_JqZOqkC3Q5-20" value="相当于runnable+return" style="text;html=1;strokeColor=default;fillColor=none;align=center;verticalAlign=middle;whiteSpace=wrap;rounded=0;" parent="1" vertex="1">
                    <mxGeometry x="660" y="100" width="100" height="60" as="geometry"/>
                </mxCell>
                <mxCell id="31dK3zNp4_JqZOqkC3Q5-24" value="«interface»&lt;br&gt;&lt;b&gt;Executor&lt;br&gt;&lt;div style=&quot;text-align: left;&quot;&gt;&lt;b style=&quot;background-color: initial;&quot;&gt;method:&lt;/b&gt;&lt;/div&gt;&lt;div style=&quot;text-align: left;&quot;&gt;&lt;b style=&quot;background-color: initial;&quot;&gt;execute&lt;/b&gt;&lt;/div&gt;&lt;/b&gt;" style="html=1;strokeColor=default;fillColor=#CCFFCC;" parent="1" vertex="1">
                    <mxGeometry x="573" y="400" width="117" height="60" as="geometry"/>
                </mxCell>
                <mxCell id="31dK3zNp4_JqZOqkC3Q5-34" value="" style="edgeStyle=orthogonalEdgeStyle;rounded=0;orthogonalLoop=1;jettySize=auto;html=1;" parent="1" source="31dK3zNp4_JqZOqkC3Q5-25" target="31dK3zNp4_JqZOqkC3Q5-24" edge="1">
                    <mxGeometry relative="1" as="geometry"/>
                </mxCell>
                <mxCell id="31dK3zNp4_JqZOqkC3Q5-25" value="«interface»&lt;br&gt;&lt;b&gt;ExecutorService&lt;br&gt;method：&lt;br&gt;定义线程池的生命周期方法&lt;br&gt;&lt;br&gt;&lt;/b&gt;" style="html=1;strokeColor=default;fillColor=#CCFFCC;" parent="1" vertex="1">
                    <mxGeometry x="553" y="490" width="157" height="80" as="geometry"/>
                </mxCell>
                <mxCell id="31dK3zNp4_JqZOqkC3Q5-37" style="edgeStyle=orthogonalEdgeStyle;rounded=0;orthogonalLoop=1;jettySize=auto;html=1;exitX=0.5;exitY=0;exitDx=0;exitDy=0;entryX=0.5;entryY=1;entryDx=0;entryDy=0;" parent="1" source="31dK3zNp4_JqZOqkC3Q5-26" target="31dK3zNp4_JqZOqkC3Q5-30" edge="1">
                    <mxGeometry relative="1" as="geometry"/>
                </mxCell>
                <mxCell id="31dK3zNp4_JqZOqkC3Q5-26" value="ThreadPoolExecutor" style="swimlane;fontStyle=1;align=center;verticalAlign=top;childLayout=stackLayout;horizontal=1;startSize=26;horizontalStack=0;resizeParent=1;resizeParentMax=0;resizeLast=0;collapsible=1;marginBottom=0;strokeColor=default;fillColor=#CCFFCC;" parent="1" vertex="1">
                    <mxGeometry x="521.5" y="670" width="220" height="214" as="geometry">
                        <mxRectangle x="551.5" y="660" width="160" height="30" as="alternateBounds"/>
                    </mxGeometry>
                </mxCell>
                <mxCell id="31dK3zNp4_JqZOqkC3Q5-27" value="corePoolsize&#10;MaxPoolsize&#10;keepalive&#10;time.unit&#10;blockingqueue任务队列&#10;ThreadFactory 线程工厂&#10;RejectStrategy &#10;    Abort Discard DiscardOld  CallerRuns&#10;&#10;" style="text;strokeColor=none;fillColor=none;align=left;verticalAlign=top;spacingLeft=4;spacingRight=4;overflow=hidden;rotatable=0;points=[[0,0.5],[1,0.5]];portConstraint=eastwest;" parent="31dK3zNp4_JqZOqkC3Q5-26" vertex="1">
                    <mxGeometry y="26" width="220" height="154" as="geometry"/>
                </mxCell>
                <mxCell id="31dK3zNp4_JqZOqkC3Q5-28" value="" style="line;strokeWidth=1;fillColor=none;align=left;verticalAlign=middle;spacingTop=-1;spacingLeft=3;spacingRight=3;rotatable=0;labelPosition=right;points=[];portConstraint=eastwest;" parent="31dK3zNp4_JqZOqkC3Q5-26" vertex="1">
                    <mxGeometry y="180" width="220" height="8" as="geometry"/>
                </mxCell>
                <mxCell id="31dK3zNp4_JqZOqkC3Q5-29" value="+ method(type): type" style="text;strokeColor=none;fillColor=none;align=left;verticalAlign=top;spacingLeft=4;spacingRight=4;overflow=hidden;rotatable=0;points=[[0,0.5],[1,0.5]];portConstraint=eastwest;" parent="31dK3zNp4_JqZOqkC3Q5-26" vertex="1">
                    <mxGeometry y="188" width="220" height="26" as="geometry"/>
                </mxCell>
                <mxCell id="31dK3zNp4_JqZOqkC3Q5-36" style="edgeStyle=orthogonalEdgeStyle;rounded=0;orthogonalLoop=1;jettySize=auto;html=1;exitX=0.5;exitY=0;exitDx=0;exitDy=0;entryX=0.5;entryY=1;entryDx=0;entryDy=0;" parent="1" source="31dK3zNp4_JqZOqkC3Q5-30" target="31dK3zNp4_JqZOqkC3Q5-25" edge="1">
                    <mxGeometry relative="1" as="geometry"/>
                </mxCell>
                <mxCell id="31dK3zNp4_JqZOqkC3Q5-30" value="AbstractExecutorService" style="swimlane;fontStyle=1;align=center;verticalAlign=top;childLayout=stackLayout;horizontal=1;startSize=26;horizontalStack=0;resizeParent=1;resizeParentMax=0;resizeLast=0;collapsible=1;marginBottom=0;strokeColor=default;fillColor=#CCFFCC;" parent="1" vertex="1" collapsed="1">
                    <mxGeometry x="541.5" y="600" width="180" height="30" as="geometry">
                        <mxRectangle x="541.5" y="600" width="180" height="86" as="alternateBounds"/>
                    </mxGeometry>
                </mxCell>
                <mxCell id="31dK3zNp4_JqZOqkC3Q5-31" value="+ field: type" style="text;strokeColor=none;fillColor=none;align=left;verticalAlign=top;spacingLeft=4;spacingRight=4;overflow=hidden;rotatable=0;points=[[0,0.5],[1,0.5]];portConstraint=eastwest;" parent="31dK3zNp4_JqZOqkC3Q5-30" vertex="1">
                    <mxGeometry y="26" width="180" height="26" as="geometry"/>
                </mxCell>
                <mxCell id="31dK3zNp4_JqZOqkC3Q5-32" value="" style="line;strokeWidth=1;fillColor=none;align=left;verticalAlign=middle;spacingTop=-1;spacingLeft=3;spacingRight=3;rotatable=0;labelPosition=right;points=[];portConstraint=eastwest;" parent="31dK3zNp4_JqZOqkC3Q5-30" vertex="1">
                    <mxGeometry y="52" width="180" height="8" as="geometry"/>
                </mxCell>
                <mxCell id="31dK3zNp4_JqZOqkC3Q5-33" value="+ method(type): type" style="text;strokeColor=none;fillColor=none;align=left;verticalAlign=top;spacingLeft=4;spacingRight=4;overflow=hidden;rotatable=0;points=[[0,0.5],[1,0.5]];portConstraint=eastwest;" parent="31dK3zNp4_JqZOqkC3Q5-30" vertex="1">
                    <mxGeometry y="60" width="180" height="26" as="geometry"/>
                </mxCell>
            </root>
        </mxGraphModel>
    </diagram>
</mxfile>